<?xml version="1.0" encoding="utf-8"?>
<!-- Generator: Adobe Illustrator 23.1.0, SVG Export Plug-In . SVG Version: 6.00 Build 0)  -->
<svg version="1.1" id="Layer_1" xmlns="http://www.w3.org/2000/svg" xmlns:xlink="http://www.w3.org/1999/xlink" x="0px" y="0px"
	 viewBox="0 0 400 180" style="enable-background:new 0 0 400 180;" xml:space="preserve">
<style type="text/css">
	.st0{fill:#999999;}
</style>
<g>
	<rect x="161.69" y="2" class="st0" width="2" height="176.75"/>
	<path class="st0" d="M207.84,75.53c0.63,1.06,3.01,4.44,8.34,4.44c6.55,0,10.56-5.18,10.56-11.51c0-6.23-3.96-11.09-10.46-11.09
		c-3.43,0-6.39,1.43-8.45,4.22v-3.75h-2.11v33.69h2.11V75.53z M216.18,59.37c4.44,0,8.34,3.17,8.34,9.08c0,5.28-2.96,9.51-8.4,9.51
		c-5.44,0-8.4-4.23-8.4-9.61C207.73,62.38,211.96,59.37,216.18,59.37z"/>
	<path class="st0" d="M243.69,59.79l1.06-1.9c-0.79-0.42-1.69-0.53-2.27-0.53c-2.32,0-3.96,1.43-4.75,3.27v-2.8h-2.11v21.55h2.11
		V67.81c0-2.69,0.05-8.45,4.38-8.45C243.06,59.37,243.48,59.63,243.69,59.79z"/>
	<path class="st0" d="M260.8,57.36c-6.39,0-11.3,4.91-11.3,11.3s4.91,11.3,11.3,11.3c6.39,0,11.3-4.91,11.3-11.3
		S267.19,57.36,260.8,57.36z M260.8,77.95c-5.17,0-9.08-4.07-9.08-9.29c0-5.23,3.91-9.29,9.08-9.29c5.18,0,9.08,4.07,9.08,9.29
		C269.88,73.89,265.98,77.95,260.8,77.95z"/>
	<rect x="280.97" y="57.83" class="st0" width="2.11" height="33.69"/>
	<ellipse class="st0" cx="282.03" cy="50.65" rx="1.9" ry="1.95"/>
	<path class="st0" d="M312.02,74.1l-1.79-1.06c-1.37,2.85-4.01,4.91-7.5,4.91c-4.54,0-8.56-3.59-8.56-9.08h18.43
		c0-6.87-4.38-11.51-10.19-11.51c-5.28,0-10.46,3.85-10.46,11.35c0,6.28,3.91,11.25,10.61,11.25
		C307.9,79.96,310.75,76.53,312.02,74.1z M302.41,59.37c4.28,0,7.45,3.22,7.97,7.5h-16.05C294.91,62.69,298.03,59.37,302.41,59.37z"
		/>
	<path class="st0" d="M339.01,76.95V74.1c-1.69,1.85-4.38,3.86-7.82,3.86c-4.17,0-8.87-3.06-8.87-9.24c0-5.28,3.7-9.35,8.98-9.35
		c3.54,0,6.02,1.9,7.45,3.54v-2.8c-2.96-2.48-5.92-2.75-7.45-2.75c-6.92,0-11.2,5.02-11.2,11.41c0,6.39,4.54,11.2,11.04,11.2
		C334.94,79.96,337.58,78.22,339.01,76.95z"/>
	<polygon class="st0" points="349.72,50.12 347.61,50.12 347.61,57.83 345.23,57.83 345.23,59.84 347.61,59.84 347.61,79.38 
		349.72,79.38 349.72,59.84 353.47,59.84 353.47,57.83 349.72,57.83 	"/>
	<path class="st0" d="M225.84,110.16c-2.85,0-5.18,1.32-6.39,3.91c-0.42-1.11-1.79-3.91-6.02-3.91c-1.48,0-3.96,0.37-5.6,3.17v-2.69
		h-2.11v21.55h2.11v-12.46c0-4.28,1.74-7.55,5.49-7.55c4.65,0,4.75,4.81,4.75,6.18v13.84h2.11V119.2c0-1.32,0.05-7.02,5.76-7.02
		c1,0,2.27,0.21,3.22,1.21c1.16,1.21,1.27,3.01,1.27,4.44v14.36h2.11v-14.36c0-1.74-0.11-4.12-1.85-5.86
		C229.75,111.01,228.22,110.16,225.84,110.16z"/>
	<path class="st0" d="M260.33,114.39c-2.06-2.91-5.02-4.23-8.4-4.23c-6.28,0-10.51,4.59-10.51,11.25c0,7.08,4.86,11.35,10.51,11.35
		c2.8,0,6.23-1.11,8.4-4.44v3.86h2.11v-21.55h-2.11V114.39z M252.09,130.76c-5.44,0-8.45-4.65-8.45-9.51c0-5.86,4.12-9.08,8.4-9.08
		c3.7,0,8.4,2.69,8.4,9.08C260.43,126.22,257.47,130.76,252.09,130.76z"/>
	<path class="st0" d="M281.4,110.16c-3.64,0-5.6,2.06-6.6,3.86v-3.38h-2.11v21.55h2.11v-11.2c0-2.11,0.21-4.12,1.16-5.81
		c0.79-1.43,2.32-3.01,5.28-3.01c2.59,0,3.75,1.32,4.23,2.11c0.79,1.21,0.84,2.85,0.84,4.33v13.57h2.11v-13.57
		c0-1.9-0.11-3.91-1.06-5.44C286.89,112.44,285.25,110.16,281.4,110.16z"/>
	<path class="st0" d="M316.2,114.39c-2.06-2.91-5.02-4.23-8.4-4.23c-6.28,0-10.51,4.59-10.51,11.25c0,7.08,4.86,11.35,10.51,11.35
		c2.8,0,6.23-1.11,8.4-4.44v3.86h2.11v-21.55h-2.11V114.39z M307.96,130.76c-5.44,0-8.45-4.65-8.45-9.51c0-5.86,4.12-9.08,8.4-9.08
		c3.7,0,8.4,2.69,8.4,9.08C316.3,126.22,313.34,130.76,307.96,130.76z"/>
	<path class="st0" d="M346.29,114.39c-1.85-2.64-4.7-4.23-8.24-4.23c-6.76,0-10.88,5.02-10.88,11.25c0,7.5,5.33,11.35,10.61,11.35
		c3.06,0,6.34-1.27,8.5-4.28v3.06c0,2.22-0.21,10.77-8.71,10.77c-4.59,0-7.97-2.75-8.34-7.24h-2.22c0.26,5.97,4.96,9.24,10.56,9.24
		c6.76,0,10.83-4.65,10.83-12.78v-20.91h-2.11V114.39z M337.74,130.76c-5.07,0-8.34-4.07-8.34-9.24c0-4.96,3.12-9.35,8.45-9.35
		c5.28,0,8.56,4.12,8.56,9.14C346.4,126.59,343.07,130.76,337.74,130.76z"/>
	<path class="st0" d="M367.73,110.16c-5.28,0-10.46,3.86-10.46,11.35c0,6.29,3.91,11.25,10.61,11.25c5.33,0,8.19-3.43,9.45-5.86
		l-1.79-1.06c-1.37,2.85-4.01,4.91-7.5,4.91c-4.54,0-8.56-3.59-8.56-9.08h18.43C377.92,114.81,373.54,110.16,367.73,110.16z
		 M367.73,112.17c4.28,0,7.45,3.22,7.97,7.5h-16.05C360.23,115.5,363.35,112.17,367.73,112.17z"/>
	<path class="st0" d="M393.66,110.16c-2.32,0-3.96,1.43-4.75,3.27v-2.8h-2.11v21.55h2.11v-11.57c0-2.69,0.05-8.45,4.38-8.45
		c0.95,0,1.37,0.26,1.58,0.42l1.06-1.9C395.14,110.27,394.24,110.16,393.66,110.16z"/>
	<path class="st0" d="M100.89,54.2l-0.56,1.92c15.12,4.4,25.68,18.49,25.68,34.25c0,19.67-16,35.67-35.67,35.67h-1v22H54.67v-23.47
		c3.46-1.63,6.7-3.8,9.6-6.5c7.88-7.32,12.4-17.79,12.4-28.73V30.7h-24v92.58c-5.07,2.16-10.62,3.08-16.32,2.67
		c-18.52-1.36-33.02-16.99-33.02-35.57V53.71h-2v36.67c0,19.63,15.32,36.13,34.87,37.57c5.72,0.42,11.32-0.45,16.47-2.5v24.6h38.67
		v-22.01c20.31-0.53,36.67-17.22,36.67-37.66C128.01,73.73,116.85,58.85,100.89,54.2z M54.67,32.7h20v56.64
		c0,10.38-4.29,20.32-11.76,27.27c-2.51,2.33-5.28,4.26-8.24,5.74V32.7z"/>
</g>
</svg>
